# xmcd
# 
# Track frame offsets:
#     150
#     22512
#     47569
#     77151
#     97101
#     117873
#     142444
#     164476
# 
# Disc length: 2490
# 
# Revision: 0
# Processed by: cddbd v1.5.2PL0 Copyright (c) Steve Scherf et al.
# Submitted via: fre:ac v1.0.17
# 
DISCID=6509b808
DTITLE=USAGI - 愛賛歌
DYEAR=2015
DGENRE=JPop
TTITLE0=君の風になって
TTITLE1=ここから
TTITLE2=イマジン
TTITLE3=ご飯ができた
TTITLE4=当たり前じゃないってこと
TTITLE5=愛賛歌
TTITLE6=スタッフロール
TTITLE7=君の風になって (Instrumental)
EXTD=
EXTT0=
EXTT1=
EXTT2=
EXTT3=
EXTT4=
EXTT5=
EXTT6=
EXTT7=
PLAYORDER=
